<svg xmlns="http://www.w3.org/2000/svg" xmlns:xlink="http://www.w3.org/1999/xlink" width="500" zoomAndPan="magnify" viewBox="0 0 375 374.999991" height="500" preserveAspectRatio="xMidYMid meet" version="1.0"><defs><g/><clipPath id="f58e815fe9"><path d="M 3.179688 4.730469 L 370.679688 4.730469 L 370.679688 371.480469 L 3.179688 371.480469 Z M 3.179688 4.730469 " clip-rule="nonzero"/></clipPath><clipPath id="5da7b135e8"><path d="M 69.761719 69.761719 L 305.238281 69.761719 L 305.238281 305.238281 L 69.761719 305.238281 Z M 69.761719 69.761719 " clip-rule="nonzero"/></clipPath><clipPath id="d94d197d6e"><path d="M 187.5 69.761719 C 122.472656 69.761719 69.761719 122.472656 69.761719 187.5 C 69.761719 252.527344 122.472656 305.238281 187.5 305.238281 C 252.527344 305.238281 305.238281 252.527344 305.238281 187.5 C 305.238281 122.472656 252.527344 69.761719 187.5 69.761719 " clip-rule="nonzero"/></clipPath></defs><g clip-path="url(#f58e815fe9)"><path fill="#e2bd28" d="M 332.789062 190.542969 C 332.847656 188.78125 334.183594 186.691406 335.757812 185.902344 L 367.777344 169.859375 C 369.355469 169.070312 370.414062 167 370.136719 165.257812 L 362.753906 131.21875 C 362.28125 129.519531 360.457031 128.035156 358.699219 127.921875 L 322.285156 125.566406 C 320.527344 125.453125 318.433594 124.070312 317.636719 122.5 L 312.6875 113.390625 C 311.800781 111.867188 311.808594 109.378906 312.707031 107.859375 L 331.09375 76.84375 C 331.996094 75.328125 331.78125 73 330.617188 71.675781 L 305.84375 46.402344 C 304.539062 45.214844 302.210938 44.941406 300.671875 45.796875 L 268.988281 63.386719 C 267.449219 64.242188 264.953125 64.195312 263.445312 63.28125 L 254.882812 58.417969 C 253.328125 57.589844 252 55.472656 251.9375 53.707031 L 250.632812 17.371094 C 250.570312 15.609375 249.136719 13.75 247.453125 13.238281 L 213.136719 5.027344 C 211.402344 4.710938 209.300781 5.726562 208.46875 7.277344 L 191.429688 39.011719 C 190.59375 40.566406 189.183594 41.824219 188.292969 41.804688 L 187.476562 41.804688 C 182.535156 41.804688 176.027344 42.296875 176.027344 42.296875 C 174.269531 42.429688 172.007812 41.351562 171.003906 39.902344 L 150.175781 9.898438 C 149.167969 8.453125 146.957031 7.652344 145.257812 8.121094 L 112.484375 19.183594 C 110.847656 19.84375 109.621094 21.820312 109.757812 23.578125 L 112.554688 59.238281 C 112.691406 61 111.589844 63.21875 110.109375 64.175781 L 99.691406 71.394531 C 98.273438 72.445312 95.785156 72.753906 94.15625 72.078125 L 60.410156 58.101562 C 58.78125 57.429688 56.484375 57.949219 55.304688 59.257812 L 34.273438 85.351562 C 33.242188 86.78125 33.269531 89.101562 34.335938 90.503906 L 55.855469 118.859375 C 56.921875 120.265625 57.1875 122.722656 56.445312 124.324219 L 50.59375 138.339844 C 49.976562 139.992188 48.050781 141.597656 46.316406 141.910156 L 10.515625 148.378906 C 8.78125 148.691406 7.136719 150.375 6.859375 152.117188 C 6.859375 152.117188 3.355469 174.140625 3.355469 187.289062 L 3.355469 187.359375 C 3.355469 187.4375 4.714844 187.996094 6.367188 188.601562 L 39.777344 200.808594 C 41.433594 201.414062 42.992188 203.339844 43.238281 205.085938 L 46.371094 222.167969 C 46.761719 223.886719 46.027344 226.277344 44.734375 227.480469 L 18.277344 252.136719 C 16.984375 253.339844 16.527344 255.636719 17.253906 257.242188 L 31.683594 285.234375 C 32.574219 286.757812 34.707031 287.6875 36.429688 287.300781 L 71.277344 279.46875 C 73 279.082031 75.359375 279.847656 76.527344 281.167969 L 89.375 294.53125 C 90.648438 295.75 91.335938 298.144531 90.898438 299.855469 L 82.03125 334.648438 C 81.59375 336.355469 82.457031 338.527344 83.945312 339.46875 L 111.152344 354.808594 C 112.730469 355.597656 115.03125 355.210938 116.269531 353.957031 L 141.507812 328.363281 C 142.746094 327.109375 145.152344 326.457031 146.855469 326.914062 L 164.796875 330.902344 C 166.53125 331.214844 168.410156 332.835938 168.964844 334.511719 L 180.226562 368.339844 C 180.78125 370.011719 182.679688 371.421875 184.441406 371.472656 C 184.441406 371.472656 185.386719 371.5 187.476562 371.5 C 198.300781 371.5 216.035156 369.179688 216.035156 369.179688 C 217.78125 368.953125 219.511719 367.351562 219.871094 365.625 L 227.324219 330.1875 C 227.6875 328.460938 229.355469 326.589844 231.027344 326.03125 L 246.8125 320.042969 C 248.433594 319.351562 250.882812 319.691406 252.257812 320.796875 L 279.949219 343.117188 C 281.324219 344.222656 283.640625 344.320312 285.097656 343.328125 L 311.09375 323.605469 C 312.441406 322.464844 313.027344 320.183594 312.402344 318.535156 L 299.4375 284.472656 C 298.808594 282.824219 299.191406 280.34375 300.285156 278.960938 L 308.867188 267.253906 C 309.859375 265.796875 312.101562 264.757812 313.855469 264.945312 L 349.289062 268.75 C 351.042969 268.941406 353.046875 267.769531 353.742188 266.148438 L 365.347656 234.394531 C 365.863281 232.707031 365.125 230.472656 363.707031 229.425781 L 334.300781 207.714844 C 332.882812 206.664062 331.859375 204.371094 332.027344 202.617188 Z M 187.003906 295.332031 C 127.746094 295.332031 79.703125 247.269531 79.703125 187.976562 C 79.703125 128.6875 127.742188 80.625 187.003906 80.625 C 246.265625 80.625 294.304688 128.6875 294.304688 187.976562 C 294.304688 247.269531 246.265625 295.332031 187.003906 295.332031 Z M 187.003906 295.332031 " fill-opacity="1" fill-rule="nonzero"/></g><g clip-path="url(#5da7b135e8)"><g clip-path="url(#d94d197d6e)"><path fill="#e2bd28" d="M 69.761719 69.761719 L 305.238281 69.761719 L 305.238281 305.238281 L 69.761719 305.238281 Z M 69.761719 69.761719 " fill-opacity="1" fill-rule="nonzero"/></g></g><g fill="#4a4a4a" fill-opacity="1"><g transform="translate(74.501954, 240.132771)"><g><path d="M 68.25 0 L 63.59375 -17.71875 L 32.859375 -17.71875 L 28.078125 0 L 0 0 L 30.859375 -94.96875 L 64.953125 -94.96875 L 96.1875 0 Z M 58.28125 -38.6875 L 54.203125 -54.203125 C 53.253906 -57.660156 52.101562 -62.125 50.75 -67.59375 C 49.394531 -73.070312 48.5 -77 48.0625 -79.375 C 47.675781 -77.175781 46.910156 -73.550781 45.765625 -68.5 C 44.617188 -63.457031 42.085938 -53.519531 38.171875 -38.6875 Z M 58.28125 -38.6875 "/></g></g></g><g fill="#4a4a4a" fill-opacity="1"><g transform="translate(170.684091, 240.132771)"><g><path d="M 78.859375 -64.5 C 78.859375 -53.925781 75.738281 -45.757812 69.5 -40 C 63.269531 -34.25 54.421875 -31.375 42.953125 -31.375 L 35.765625 -31.375 L 35.765625 0 L 10.21875 0 L 10.21875 -94.578125 L 42.953125 -94.578125 C 54.898438 -94.578125 63.867188 -91.96875 69.859375 -86.75 C 75.859375 -81.53125 78.859375 -74.113281 78.859375 -64.5 Z M 35.765625 -52.203125 L 40.4375 -52.203125 C 44.269531 -52.203125 47.316406 -53.28125 49.578125 -55.4375 C 51.847656 -57.59375 52.984375 -60.566406 52.984375 -64.359375 C 52.984375 -70.742188 49.445312 -73.9375 42.375 -73.9375 L 35.765625 -73.9375 Z M 35.765625 -52.203125 "/></g></g></g><g fill="#4a4a4a" fill-opacity="1"><g transform="translate(254.382602, 240.132771)"><g><path d="M 10.21875 0 L 10.21875 -94.578125 L 35.90625 -94.578125 L 35.90625 0 Z M 10.21875 0 "/></g></g></g></svg>