<svg xmlns="http://www.w3.org/2000/svg" xmlns:xlink="http://www.w3.org/1999/xlink" width="500" zoomAndPan="magnify" viewBox="0 0 375 374.999991" height="500" preserveAspectRatio="xMidYMid meet" version="1.0"><defs><clipPath id="65e1e6e4bc"><path d="M 4.136719 6.617188 L 368.636719 6.617188 L 368.636719 371.117188 L 4.136719 371.117188 Z M 4.136719 6.617188 " clip-rule="nonzero"/></clipPath></defs><g clip-path="url(#65e1e6e4bc)"><path fill="#ff7e5f" d="M 186.386719 6.617188 C 178.648438 6.617188 172.367188 12.898438 172.367188 20.636719 L 172.367188 23.046875 C 172.367188 29.746094 167.648438 35.726562 161.03125 36.792969 C 157.820312 37.3125 154.640625 37.910156 151.503906 38.625 C 144.996094 40.113281 138.417969 36.429688 135.867188 30.273438 L 134.9375 28.085938 C 131.976562 20.933594 123.78125 17.527344 116.617188 20.5 C 109.46875 23.457031 106.0625 31.652344 109.035156 38.816406 L 109.964844 41.0625 C 112.542969 47.230469 110.480469 54.535156 104.789062 58.066406 C 102.042969 59.777344 99.359375 61.570312 96.738281 63.433594 C 91.300781 67.316406 83.777344 66.433594 79.050781 61.707031 L 77.355469 60.011719 C 71.871094 54.53125 62.996094 54.53125 57.53125 60.011719 C 52.0625 65.492188 52.0625 74.367188 57.53125 79.835938 L 59.226562 81.53125 C 63.953125 86.257812 64.835938 93.769531 60.953125 99.222656 C 59.085938 101.84375 57.296875 104.523438 55.585938 107.269531 C 52.050781 112.964844 44.738281 115.039062 38.554688 112.472656 L 36.335938 111.542969 C 29.1875 108.585938 20.964844 111.976562 17.992188 119.128906 C 15.03125 126.277344 18.425781 134.472656 25.574219 137.445312 L 27.765625 138.347656 C 33.921875 140.902344 37.628906 147.480469 36.144531 153.984375 C 35.429688 157.125 34.800781 160.300781 34.28125 163.511719 C 33.230469 170.117188 27.265625 174.847656 20.566406 174.847656 L 18.15625 174.847656 C 10.417969 174.847656 4.136719 181.128906 4.136719 188.867188 C 4.136719 196.605469 10.417969 202.886719 18.15625 202.886719 L 20.566406 202.886719 C 27.265625 202.886719 33.246094 207.605469 34.308594 214.222656 C 34.828125 217.433594 35.429688 220.609375 36.144531 223.75 C 37.628906 230.257812 33.949219 236.835938 27.792969 239.386719 L 25.601562 240.316406 C 18.453125 243.273438 15.046875 251.472656 18.019531 258.636719 C 20.976562 265.785156 29.171875 269.191406 36.335938 266.21875 L 38.582031 265.289062 C 44.765625 262.722656 52.066406 264.785156 55.613281 270.464844 C 57.324219 273.210938 59.101562 275.90625 60.980469 278.542969 C 64.863281 283.980469 63.980469 291.503906 59.253906 296.230469 L 57.53125 297.925781 C 52.046875 303.410156 52.046875 312.285156 57.53125 317.75 C 63.011719 323.21875 71.886719 323.234375 77.355469 317.75 L 79.078125 316.054688 C 83.804688 311.328125 91.300781 310.417969 96.738281 314.300781 C 99.375 316.179688 102.070312 317.984375 104.816406 319.695312 C 110.496094 323.226562 112.585938 330.542969 110.019531 336.726562 L 109.089844 338.945312 C 106.128906 346.09375 109.523438 354.316406 116.671875 357.289062 C 123.824219 360.25 132.019531 356.855469 134.992188 349.707031 L 135.894531 347.515625 C 138.445312 341.359375 145.023438 337.648438 151.53125 339.136719 C 154.671875 339.851562 157.847656 340.480469 161.058594 341 C 167.632812 342.023438 172.367188 347.988281 172.367188 354.6875 L 172.367188 357.097656 C 172.367188 364.835938 178.648438 371.117188 186.386719 371.117188 C 194.125 371.117188 200.40625 364.835938 200.40625 357.097656 L 200.40625 354.6875 C 200.40625 347.988281 205.125 342.007812 211.742188 340.945312 C 214.953125 340.425781 218.128906 339.824219 221.269531 339.109375 C 227.773438 337.621094 234.351562 341.304688 236.90625 347.460938 L 237.835938 349.652344 C 240.792969 356.800781 248.988281 360.207031 256.152344 357.234375 C 263.304688 354.277344 266.710938 346.082031 263.738281 338.917969 L 262.808594 336.671875 C 260.242188 330.488281 262.304688 323.1875 267.980469 319.640625 C 270.730469 317.929688 273.425781 316.152344 276.058594 314.273438 C 281.5 310.390625 289.023438 311.273438 293.75 316 L 295.445312 317.722656 C 300.925781 323.207031 309.800781 323.207031 315.269531 317.722656 C 320.738281 312.242188 320.75 303.367188 315.269531 297.898438 L 313.570312 296.175781 C 308.847656 291.449219 307.9375 283.953125 311.820312 278.515625 C 313.699219 275.878906 315.503906 273.183594 317.214844 270.4375 C 320.746094 264.757812 328.0625 262.667969 334.246094 265.234375 L 336.464844 266.164062 C 343.613281 269.125 351.835938 265.730469 354.808594 258.582031 C 357.765625 251.429688 354.375 243.234375 347.222656 240.261719 L 345.035156 239.359375 C 338.878906 236.808594 335.167969 230.230469 336.65625 223.722656 C 337.371094 220.582031 337.996094 217.40625 338.515625 214.195312 C 339.539062 207.621094 345.507812 202.886719 352.207031 202.886719 L 354.617188 202.886719 C 362.355469 202.886719 368.636719 196.605469 368.636719 188.867188 C 368.636719 181.128906 362.355469 174.847656 354.617188 174.847656 L 352.207031 174.847656 C 345.507812 174.847656 339.527344 170.128906 338.460938 163.511719 C 337.941406 160.300781 337.34375 157.125 336.628906 153.984375 C 335.140625 147.480469 338.824219 140.902344 344.980469 138.347656 L 347.167969 137.417969 C 354.320312 134.460938 357.726562 126.265625 354.753906 119.101562 C 351.796875 111.949219 343.597656 108.542969 336.4375 111.515625 L 334.191406 112.445312 C 328.007812 115.011719 320.707031 112.949219 317.160156 107.269531 C 315.449219 104.523438 313.671875 101.828125 311.792969 99.195312 C 307.910156 93.753906 308.792969 86.230469 313.515625 81.503906 L 315.242188 79.808594 C 320.722656 74.328125 320.722656 65.453125 315.242188 59.984375 C 309.761719 54.503906 300.886719 54.503906 295.417969 59.984375 L 293.722656 61.707031 C 288.996094 66.433594 281.472656 67.34375 276.03125 63.460938 C 273.398438 61.582031 270.703125 59.777344 267.953125 58.066406 C 262.277344 54.535156 260.214844 47.21875 262.78125 41.035156 L 263.710938 38.816406 C 266.667969 31.667969 263.277344 23.445312 256.125 20.472656 C 248.976562 17.515625 240.78125 20.90625 237.808594 28.058594 L 236.878906 30.246094 C 234.324219 36.402344 227.746094 40.113281 221.242188 38.625 C 218.101562 37.910156 214.925781 37.28125 211.714844 36.765625 C 205.125 35.714844 200.40625 29.746094 200.40625 23.046875 L 200.40625 20.636719 C 200.40625 12.898438 194.125 6.617188 186.386719 6.617188 Z M 104.242188 146.808594 L 130.417969 146.808594 L 158.675781 230.925781 L 135.375 230.925781 L 130.117188 212.441406 L 102.652344 212.441406 L 97.234375 230.925781 L 76.011719 230.925781 Z M 175.160156 146.808594 L 212.015625 146.808594 C 230.085938 146.808594 242.324219 158.585938 242.324219 176.65625 C 242.324219 194.542969 229.429688 206.253906 210.726562 206.253906 L 196.570312 206.253906 L 196.570312 230.925781 L 175.160156 230.925781 Z M 269.789062 146.808594 L 291.203125 146.808594 L 291.203125 230.925781 L 269.789062 230.925781 Z M 196.542969 163.265625 L 196.542969 190.128906 L 206.238281 190.128906 C 215.335938 190.128906 220.695312 185.472656 220.695312 176.738281 C 220.707031 167.863281 215.390625 163.265625 206.347656 163.265625 Z M 115.960938 165.757812 L 106.734375 197.054688 L 126.09375 197.054688 L 117.054688 165.757812 Z M 115.960938 165.757812 " fill-opacity="1" fill-rule="nonzero"/></g></svg>